{
  "accessors": [
    {
      "bufferView": 2,
      "componentType": 5126,
      "count": 2208,
      "max": [
        47.081100463867188,
        20.280918121337891,
        4.4952516555786133
      ],
      "min": [
        -47.029529571533203,
        -20.310050964355469,
        -60.230308532714844
      ],
      "type": "VEC3"
    },
    {
      "bufferView": 2,
      "byteOffset": 26496,
      "componentType": 5126,
      "count": 2208,
      "max": [
        1,
        1,
        1
      ],
      "min": [
        -1,
        -1,
        -0.99996846914291382
      ],
      "type": "VEC3"
    },
    {
      "bufferView": 3,
      "componentType": 5126,
      "count": 2208,
      "max": [
        0.99999767541885376,
        1,
        1,
        1
      ],
      "min": [
        -0.99999386072158813,
        -1,
        -0.99999737739562988,
        -1
      ],
      "type": "VEC4"
    },
    {
      "bufferView": 1,
      "componentType": 5126,
      "count": 2208,
      "max": [
        0.96538805961608887,
        0.97967630624771118
      ],
      "min": [
        0.0049578845500946045,
        0.034865722060203552
      ],
      "type": "VEC2"
    },
    {
      "bufferView": 0,
      "componentType": 5125,
      "count": 4842,
      "max": [
        2207
      ],
      "min": [
        0
      ],
      "type": "SCALAR"
    },
    {
      "bufferView": 2,
      "byteOffset": 52992,
      "componentType": 5126,
      "count": 24356,
      "max": [
        47.401817321777344,
        38.117969512939453,
        3.266624927520752
      ],
      "min": [
        -51.353446960449219,
        -38.117969512939453,
        -70.511878967285156
      ],
      "type": "VEC3"
    },
    {
      "bufferView": 2,
      "byteOffset": 345264,
      "componentType": 5126,
      "count": 24356,
      "max": [
        1,
        1,
        1
      ],
      "min": [
        -1,
        -1,
        -1
      ],
      "type": "VEC3"
    },
    {
      "bufferView": 3,
      "byteOffset": 35328,
      "componentType": 5126,
      "count": 24356,
      "max": [
        1,
        1,
        1,
        1
      ],
      "min": [
        -1,
        -1,
        -1,
        -1
      ],
      "type": "VEC4"
    },
    {
      "bufferView": 1,
      "byteOffset": 17664,
      "componentType": 5126,
      "count": 24356,
      "max": [
        0.94786381721496582,
        0.84713751077651978
      ],
      "min": [
        0.0080189667642116547,
        0.0094629758968949318
      ],
      "type": "VEC2"
    },
    {
      "bufferView": 0,
      "byteOffset": 19368,
      "componentType": 5125,
      "count": 56352,
      "max": [
        24355
      ],
      "min": [
        0
      ],
      "type": "SCALAR"
    },
    {
      "bufferView": 2,
      "byteOffset": 637536,
      "componentType": 5126,
      "count": 2196,
      "max": [
        46.50390625,
        19.680940628051758,
        3.9110229015350342
      ],
      "min": [
        -46.537425994873047,
        -19.735212326049805,
        -59.745658874511719
      ],
      "type": "VEC3"
    },
    {
      "bufferView": 2,
      "byteOffset": 663888,
      "componentType": 5126,
      "count": 2196,
      "max": [
        1,
        1,
        1
      ],
      "min": [
        -1,
        -1,
        -1
      ],
      "type": "VEC3"
    },
    {
      "bufferView": 3,
      "byteOffset": 425024,
      "componentType": 5126,
      "count": 2196,
      "max": [
        0.99999892711639404,
        1,
        1,
        1
      ],
      "min": [
        -1,
        -1,
        -0.99999833106994629,
        1
      ],
      "type": "VEC4"
    },
    {
      "bufferView": 1,
      "byteOffset": 212512,
      "componentType": 5126,
      "count": 2196,
      "max": [
        0.96538805961608887,
        0.97967630624771118
      ],
      "min": [
        0.0049578845500946045,
        0.034865722060203552
      ],
      "type": "VEC2"
    },
    {
      "bufferView": 0,
      "byteOffset": 244776,
      "componentType": 5125,
      "count": 4842,
      "max": [
        2195
      ],
      "min": [
        0
      ],
      "type": "SCALAR"
    },
    {
      "bufferView": 2,
      "byteOffset": 690240,
      "componentType": 5126,
      "count": 24252,
      "max": [
        46.859550476074219,
        37.518398284912109,
        2.8435182571411133
      ],
      "min": [
        -50.951393127441406,
        -37.518398284912109,
        -69.930419921875
      ],
      "type": "VEC3"
    },
    {
      "bufferView": 2,
      "byteOffset": 981264,
      "componentType": 5126,
      "count": 24252,
      "max": [
        1,
        1,
        1
      ],
      "min": [
        -1,
        -1,
        -1
      ],
      "type": "VEC3"
    },
    {
      "bufferView": 3,
      "byteOffset": 460160,
      "componentType": 5126,
      "count": 24252,
      "max": [
        1,
        1,
        1,
        1
      ],
      "min": [
        -1,
        -1,
        -1,
        -1
      ],
      "type": "VEC4"
    },
    {
      "bufferView": 1,
      "byteOffset": 230080,
      "componentType": 5126,
      "count": 24252,
      "max": [
        0.94786381721496582,
        0.84713751077651978
      ],
      "min": [
        0.0080189667642116547,
        0.0094629758968949318
      ],
      "type": "VEC2"
    },
    {
      "bufferView": 0,
      "byteOffset": 264144,
      "componentType": 5125,
      "count": 56352,
      "max": [
        24251
      ],
      "min": [
        0
      ],
      "type": "SCALAR"
    }
  ],
  "asset": {
    "extras": {
      "author": "Jorge Vazquez (https://sketchfab.com/Maidenlel09)",
      "license": "CC-BY-4.0 (http://creativecommons.org/licenses/by/4.0/)",
      "source": "https://sketchfab.com/3d-models/metal-slug-rebel-tank-comic-style-1b06956e7ecd407693e91645f07d25ac",
      "title": "Metal Slug - Rebel Tank - Comic Style"
    },
    "generator": "Sketchfab-7.7.0",
    "version": "2.0"
  },
  "bufferViews": [
    {
      "buffer": 0,
      "byteLength": 489552,
      "byteOffset": 0,
      "name": "floatBufferViews",
      "target": 34963
    },
    {
      "buffer": 0,
      "byteLength": 424096,
      "byteOffset": 489552,
      "byteStride": 8,
      "name": "floatBufferViews",
      "target": 34962
    },
    {
      "buffer": 0,
      "byteLength": 1272288,
      "byteOffset": 913648,
      "byteStride": 12,
      "name": "floatBufferViews",
      "target": 34962
    },
    {
      "buffer": 0,
      "byteLength": 848192,
      "byteOffset": 2185936,
      "byteStride": 16,
      "name": "floatBufferViews",
      "target": 34962
    }
  ],
  "buffers": [
    {
      "byteLength": 3034128,
      "uri": "scene.bin"
    }
  ],
  "images": [
    {
      "uri": "textures/material_baseColor.jpeg"
    },
    {
      "uri": "textures/material_metallicRoughness.png"
    },
    {
      "uri": "textures/material_emissive.jpeg"
    },
    {
      "uri": "textures/material_normal.png"
    }
  ],
  "materials": [
    {
      "doubleSided": false,
      "emissiveFactor": [
        0,
        0,
        0
      ],
      "name": "black",
      "pbrMetallicRoughness": {
        "baseColorFactor": [
          0,
          0,
          0,
          1
        ],
        "metallicFactor": 0,
        "roughnessFactor": 1
      }
    },
    {
      "doubleSided": true,
      "emissiveFactor": [
        1,
        1,
        1
      ],
      "emissiveTexture": {
        "index": 2,
        "texCoord": 0
      },
      "name": "material",
      "normalTexture": {
        "index": 3,
        "scale": 1,
        "texCoord": 0
      },
      "occlusionTexture": {
        "index": 1,
        "strength": 0.33098323170731708,
        "texCoord": 0
      },
      "pbrMetallicRoughness": {
        "baseColorFactor": [
          1,
          1,
          1,
          1
        ],
        "baseColorTexture": {
          "index": 0,
          "texCoord": 0
        },
        "metallicFactor": 0,
        "metallicRoughnessTexture": {
          "index": 1,
          "texCoord": 0
        },
        "roughnessFactor": 1
      }
    }
  ],
  "meshes": [
    {
      "name": "Cylinder002_black_0",
      "primitives": [
        {
          "attributes": {
            "NORMAL": 1,
            "POSITION": 0,
            "TANGENT": 2,
            "TEXCOORD_0": 3
          },
          "indices": 4,
          "material": 0,
          "mode": 4
        }
      ]
    },
    {
      "name": "Object001_black_0",
      "primitives": [
        {
          "attributes": {
            "NORMAL": 6,
            "POSITION": 5,
            "TANGENT": 7,
            "TEXCOORD_0": 8
          },
          "indices": 9,
          "material": 0,
          "mode": 4
        }
      ]
    },
    {
      "name": "Cylinder003_yey_0",
      "primitives": [
        {
          "attributes": {
            "NORMAL": 11,
            "POSITION": 10,
            "TANGENT": 12,
            "TEXCOORD_0": 13
          },
          "indices": 14,
          "material": 1,
          "mode": 4
        }
      ]
    },
    {
      "name": "Object002_yey_0",
      "primitives": [
        {
          "attributes": {
            "NORMAL": 16,
            "POSITION": 15,
            "TANGENT": 17,
            "TEXCOORD_0": 18
          },
          "indices": 19,
          "material": 1,
          "mode": 4
        }
      ]
    }
  ],
  "nodes": [
    {
      "children": [
        1
      ],
      "name": "RootNode (gltf orientation matrix)",
      "rotation": [
        -0.70710678118654746,
        -0,
        -0,
        0.70710678118654757
      ]
    },
    {
      "children": [
        2
      ],
      "name": "RootNode (model correction matrix)"
    },
    {
      "children": [
        3
      ],
      "matrix": [
        1,
        0,
        0,
        0,
        0,
        0,
        1,
        0,
        0,
        -1,
        0,
        0,
        0,
        0,
        0,
        1
      ],
      "name": "2.FBX"
    },
    {
      "children": [
        4,
        6,
        8,
        10
      ],
      "name": "RootNode"
    },
    {
      "children": [
        5
      ],
      "matrix": [
        1,
        0,
        0,
        0,
        0,
        2.2204460492503131e-16,
        -1,
        0,
        0,
        1,
        2.2204460492503131e-16,
        0,
        7.4634881019592285,
        89.336662292480469,
        23.542261123657227,
        1
      ],
      "name": "Cylinder002"
    },
    {
      "mesh": 0,
      "name": "Cylinder002_black_0"
    },
    {
      "children": [
        7
      ],
      "matrix": [
        1,
        0,
        0,
        0,
        0,
        2.2204460492503131e-16,
        -1,
        0,
        0,
        1,
        2.2204460492503131e-16,
        0,
        7.4634881019592285,
        89.336662292480469,
        23.542261123657227,
        1
      ],
      "name": "Object001"
    },
    {
      "mesh": 1,
      "name": "Object001_black_0"
    },
    {
      "children": [
        9
      ],
      "matrix": [
        1,
        0,
        0,
        0,
        0,
        2.2204460492503131e-16,
        -1,
        0,
        0,
        1,
        2.2204460492503131e-16,
        0,
        7.4634881019592285,
        89.336662292480469,
        23.542261123657227,
        1
      ],
      "name": "Cylinder003"
    },
    {
      "mesh": 2,
      "name": "Cylinder003_yey_0"
    },
    {
      "children": [
        11
      ],
      "matrix": [
        1,
        0,
        0,
        0,
        0,
        2.2204460492503131e-16,
        -1,
        0,
        0,
        1,
        2.2204460492503131e-16,
        0,
        7.4634881019592285,
        89.336662292480469,
        23.542261123657227,
        1
      ],
      "name": "Object002"
    },
    {
      "mesh": 3,
      "name": "Object002_yey_0"
    }
  ],
  "samplers": [
    {
      "magFilter": 9729,
      "minFilter": 9987,
      "wrapS": 10497,
      "wrapT": 10497
    }
  ],
  "scene": 0,
  "scenes": [
    {
      "name": "OSG_Scene",
      "nodes": [
        0
      ]
    }
  ],
  "textures": [
    {
      "sampler": 0,
      "source": 0
    },
    {
      "sampler": 0,
      "source": 1
    },
    {
      "sampler": 0,
      "source": 2
    },
    {
      "sampler": 0,
      "source": 3
    }
  ]
}

